<mxfile host="Electron" modified="2023-03-31T16:56:47.938Z" agent="Mozilla/5.0 (Windows NT 10.0; Win64; x64) AppleWebKit/537.36 (KHTML, like Gecko) draw.io/21.1.2 Chrome/106.0.5249.199 Electron/21.4.3 Safari/537.36" etag="UU8rmS6Lolj0_vrk4--s" version="21.1.2" type="device">
  <diagram id="R2lEEEUBdFMjLlhIrx00" name="Page-1">
    <mxGraphModel dx="867" dy="820" grid="1" gridSize="10" guides="1" tooltips="1" connect="1" arrows="1" fold="1" page="1" pageScale="1" pageWidth="850" pageHeight="1100" math="0" shadow="0" extFonts="Permanent Marker^https://fonts.googleapis.com/css?family=Permanent+Marker">
      <root>
        <mxCell id="0" />
        <mxCell id="1" parent="0" />
        <mxCell id="xb4tpsyRX88__qetT4gH-3" value="" style="rounded=0;orthogonalLoop=1;jettySize=auto;html=1;endArrow=none;endFill=0;" parent="1" source="xb4tpsyRX88__qetT4gH-1" target="xb4tpsyRX88__qetT4gH-2" edge="1">
          <mxGeometry relative="1" as="geometry" />
        </mxCell>
        <mxCell id="xb4tpsyRX88__qetT4gH-4" value="" style="edgeStyle=none;rounded=0;orthogonalLoop=1;jettySize=auto;html=1;endArrow=none;endFill=0;" parent="1" source="xb4tpsyRX88__qetT4gH-1" target="xb4tpsyRX88__qetT4gH-2" edge="1">
          <mxGeometry relative="1" as="geometry" />
        </mxCell>
        <mxCell id="xb4tpsyRX88__qetT4gH-5" value="" style="edgeStyle=none;rounded=0;orthogonalLoop=1;jettySize=auto;html=1;endArrow=none;endFill=0;" parent="1" source="xb4tpsyRX88__qetT4gH-1" target="xb4tpsyRX88__qetT4gH-2" edge="1">
          <mxGeometry relative="1" as="geometry" />
        </mxCell>
        <mxCell id="xb4tpsyRX88__qetT4gH-6" value="" style="edgeStyle=none;rounded=0;orthogonalLoop=1;jettySize=auto;html=1;endArrow=none;endFill=0;" parent="1" source="xb4tpsyRX88__qetT4gH-1" target="xb4tpsyRX88__qetT4gH-2" edge="1">
          <mxGeometry relative="1" as="geometry" />
        </mxCell>
        <mxCell id="xb4tpsyRX88__qetT4gH-8" value="" style="edgeStyle=none;rounded=0;orthogonalLoop=1;jettySize=auto;html=1;endArrow=none;endFill=0;" parent="1" source="xb4tpsyRX88__qetT4gH-1" target="xb4tpsyRX88__qetT4gH-7" edge="1">
          <mxGeometry relative="1" as="geometry" />
        </mxCell>
        <mxCell id="xb4tpsyRX88__qetT4gH-10" value="" style="edgeStyle=none;rounded=0;orthogonalLoop=1;jettySize=auto;html=1;endArrow=none;endFill=0;" parent="1" source="xb4tpsyRX88__qetT4gH-1" target="xb4tpsyRX88__qetT4gH-9" edge="1">
          <mxGeometry relative="1" as="geometry" />
        </mxCell>
        <mxCell id="xb4tpsyRX88__qetT4gH-12" value="" style="edgeStyle=none;rounded=0;orthogonalLoop=1;jettySize=auto;html=1;endArrow=none;endFill=0;startArrow=classic;startFill=1;" parent="1" source="xb4tpsyRX88__qetT4gH-1" target="xb4tpsyRX88__qetT4gH-11" edge="1">
          <mxGeometry relative="1" as="geometry" />
        </mxCell>
        <mxCell id="xb4tpsyRX88__qetT4gH-66" value="" style="edgeStyle=none;rounded=0;orthogonalLoop=1;jettySize=auto;html=1;endArrow=none;endFill=0;" parent="1" source="xb4tpsyRX88__qetT4gH-1" target="xb4tpsyRX88__qetT4gH-65" edge="1">
          <mxGeometry relative="1" as="geometry" />
        </mxCell>
        <mxCell id="xb4tpsyRX88__qetT4gH-1" value="Book" style="rounded=0;whiteSpace=wrap;html=1;fillColor=#dae8fc;strokeColor=#6c8ebf;" parent="1" vertex="1">
          <mxGeometry x="200" y="200" width="120" height="60" as="geometry" />
        </mxCell>
        <mxCell id="xb4tpsyRX88__qetT4gH-2" value="Author" style="ellipse;whiteSpace=wrap;html=1;rounded=0;fillColor=#fff2cc;strokeColor=#d6b656;" parent="1" vertex="1">
          <mxGeometry x="70" y="280" width="80" height="50" as="geometry" />
        </mxCell>
        <mxCell id="xb4tpsyRX88__qetT4gH-7" value="Publishers" style="ellipse;whiteSpace=wrap;html=1;rounded=0;fillColor=#fff2cc;strokeColor=#d6b656;" parent="1" vertex="1">
          <mxGeometry x="30" y="230" width="80" height="50" as="geometry" />
        </mxCell>
        <mxCell id="xb4tpsyRX88__qetT4gH-9" value="ISBN" style="ellipse;whiteSpace=wrap;html=1;rounded=0;fillColor=#fff2cc;strokeColor=#d6b656;" parent="1" vertex="1">
          <mxGeometry x="20" y="170" width="80" height="50" as="geometry" />
        </mxCell>
        <mxCell id="xb4tpsyRX88__qetT4gH-14" value="" style="edgeStyle=none;rounded=0;orthogonalLoop=1;jettySize=auto;html=1;endArrow=classic;endFill=1;" parent="1" source="xb4tpsyRX88__qetT4gH-11" target="xb4tpsyRX88__qetT4gH-13" edge="1">
          <mxGeometry relative="1" as="geometry" />
        </mxCell>
        <mxCell id="xb4tpsyRX88__qetT4gH-11" value="borrow" style="rhombus;whiteSpace=wrap;html=1;rounded=0;fillColor=#d5e8d4;strokeColor=#82b366;" parent="1" vertex="1">
          <mxGeometry x="420" y="190" width="80" height="80" as="geometry" />
        </mxCell>
        <mxCell id="xb4tpsyRX88__qetT4gH-33" value="" style="edgeStyle=none;rounded=0;orthogonalLoop=1;jettySize=auto;html=1;endArrow=none;endFill=0;" parent="1" source="xb4tpsyRX88__qetT4gH-13" target="xb4tpsyRX88__qetT4gH-32" edge="1">
          <mxGeometry relative="1" as="geometry" />
        </mxCell>
        <mxCell id="xb4tpsyRX88__qetT4gH-51" value="" style="edgeStyle=none;rounded=0;orthogonalLoop=1;jettySize=auto;html=1;endArrow=none;endFill=0;" parent="1" source="xb4tpsyRX88__qetT4gH-13" target="xb4tpsyRX88__qetT4gH-50" edge="1">
          <mxGeometry relative="1" as="geometry" />
        </mxCell>
        <mxCell id="xb4tpsyRX88__qetT4gH-13" value="Members" style="whiteSpace=wrap;html=1;rounded=0;fillColor=#dae8fc;strokeColor=#6c8ebf;" parent="1" vertex="1">
          <mxGeometry x="560" y="200" width="120" height="60" as="geometry" />
        </mxCell>
        <mxCell id="xb4tpsyRX88__qetT4gH-19" value="" style="edgeStyle=none;rounded=0;orthogonalLoop=1;jettySize=auto;html=1;endArrow=none;endFill=0;" parent="1" source="xb4tpsyRX88__qetT4gH-16" target="xb4tpsyRX88__qetT4gH-18" edge="1">
          <mxGeometry relative="1" as="geometry" />
        </mxCell>
        <mxCell id="xb4tpsyRX88__qetT4gH-23" value="" style="edgeStyle=none;rounded=0;orthogonalLoop=1;jettySize=auto;html=1;endArrow=none;endFill=0;" parent="1" source="xb4tpsyRX88__qetT4gH-16" target="xb4tpsyRX88__qetT4gH-22" edge="1">
          <mxGeometry relative="1" as="geometry" />
        </mxCell>
        <mxCell id="xb4tpsyRX88__qetT4gH-58" value="" style="edgeStyle=none;rounded=0;orthogonalLoop=1;jettySize=auto;html=1;endArrow=none;endFill=0;" parent="1" source="xb4tpsyRX88__qetT4gH-16" target="xb4tpsyRX88__qetT4gH-22" edge="1">
          <mxGeometry relative="1" as="geometry" />
        </mxCell>
        <mxCell id="3SSYS_Ih3W2ZmXRvELC8-4" value="" style="edgeStyle=none;rounded=0;orthogonalLoop=1;jettySize=auto;html=1;endArrow=none;endFill=0;" parent="1" source="xb4tpsyRX88__qetT4gH-16" target="3SSYS_Ih3W2ZmXRvELC8-3" edge="1">
          <mxGeometry relative="1" as="geometry" />
        </mxCell>
        <mxCell id="xb4tpsyRX88__qetT4gH-16" value="Librarian" style="whiteSpace=wrap;html=1;rounded=0;fillColor=#dae8fc;strokeColor=#6c8ebf;" parent="1" vertex="1">
          <mxGeometry x="200" y="540" width="120" height="60" as="geometry" />
        </mxCell>
        <mxCell id="xb4tpsyRX88__qetT4gH-18" value="Name" style="ellipse;whiteSpace=wrap;html=1;rounded=0;fillColor=#fff2cc;strokeColor=#d6b656;" parent="1" vertex="1">
          <mxGeometry x="70" y="460" width="80" height="50" as="geometry" />
        </mxCell>
        <mxCell id="xb4tpsyRX88__qetT4gH-22" value="&lt;u&gt;LibrarianID&lt;/u&gt;" style="ellipse;whiteSpace=wrap;html=1;rounded=0;fillColor=#fff2cc;strokeColor=#d6b656;" parent="1" vertex="1">
          <mxGeometry x="60" y="515" width="80" height="50" as="geometry" />
        </mxCell>
        <mxCell id="xb4tpsyRX88__qetT4gH-29" value="" style="edgeStyle=none;rounded=0;orthogonalLoop=1;jettySize=auto;html=1;endArrow=none;endFill=0;" parent="1" source="xb4tpsyRX88__qetT4gH-24" target="xb4tpsyRX88__qetT4gH-13" edge="1">
          <mxGeometry relative="1" as="geometry" />
        </mxCell>
        <mxCell id="xb4tpsyRX88__qetT4gH-24" value="First Name" style="ellipse;whiteSpace=wrap;html=1;rounded=0;fillColor=#fff2cc;strokeColor=#d6b656;" parent="1" vertex="1">
          <mxGeometry x="730" y="170" width="80" height="50" as="geometry" />
        </mxCell>
        <mxCell id="xb4tpsyRX88__qetT4gH-27" value="" style="edgeStyle=none;rounded=0;orthogonalLoop=1;jettySize=auto;html=1;endArrow=none;endFill=0;" parent="1" source="xb4tpsyRX88__qetT4gH-13" target="xb4tpsyRX88__qetT4gH-26" edge="1">
          <mxGeometry relative="1" as="geometry">
            <mxPoint x="680" y="230" as="sourcePoint" />
            <mxPoint x="780" y="230" as="targetPoint" />
          </mxGeometry>
        </mxCell>
        <mxCell id="xb4tpsyRX88__qetT4gH-28" value="" style="edgeStyle=none;rounded=0;orthogonalLoop=1;jettySize=auto;html=1;endArrow=none;endFill=0;" parent="1" source="xb4tpsyRX88__qetT4gH-26" target="xb4tpsyRX88__qetT4gH-13" edge="1">
          <mxGeometry relative="1" as="geometry" />
        </mxCell>
        <mxCell id="xb4tpsyRX88__qetT4gH-26" value="&lt;u&gt;MemberID&lt;/u&gt;" style="ellipse;whiteSpace=wrap;html=1;rounded=0;fillColor=#fff2cc;strokeColor=#d6b656;" parent="1" vertex="1">
          <mxGeometry x="740" y="230" width="80" height="50" as="geometry" />
        </mxCell>
        <mxCell id="xb4tpsyRX88__qetT4gH-32" value="Phone Number" style="ellipse;whiteSpace=wrap;html=1;rounded=0;fillColor=#fff2cc;strokeColor=#d6b656;" parent="1" vertex="1">
          <mxGeometry x="750" y="290" width="80" height="40" as="geometry" />
        </mxCell>
        <mxCell id="xb4tpsyRX88__qetT4gH-38" value="" style="edgeStyle=none;rounded=0;orthogonalLoop=1;jettySize=auto;html=1;endArrow=classic;endFill=1;" parent="1" source="xb4tpsyRX88__qetT4gH-36" target="xb4tpsyRX88__qetT4gH-16" edge="1">
          <mxGeometry relative="1" as="geometry" />
        </mxCell>
        <mxCell id="xb4tpsyRX88__qetT4gH-39" value="" style="edgeStyle=none;rounded=0;orthogonalLoop=1;jettySize=auto;html=1;endArrow=none;endFill=0;" parent="1" source="xb4tpsyRX88__qetT4gH-36" target="xb4tpsyRX88__qetT4gH-1" edge="1">
          <mxGeometry relative="1" as="geometry" />
        </mxCell>
        <mxCell id="xb4tpsyRX88__qetT4gH-36" value="manage" style="rhombus;whiteSpace=wrap;html=1;fillColor=#d5e8d4;strokeColor=#82b366;" parent="1" vertex="1">
          <mxGeometry x="220" y="380" width="80" height="80" as="geometry" />
        </mxCell>
        <mxCell id="xb4tpsyRX88__qetT4gH-55" value="" style="edgeStyle=none;rounded=0;orthogonalLoop=1;jettySize=auto;html=1;endArrow=none;endFill=0;entryX=0.317;entryY=1;entryDx=0;entryDy=0;entryPerimeter=0;" parent="1" source="xb4tpsyRX88__qetT4gH-40" target="xb4tpsyRX88__qetT4gH-13" edge="1">
          <mxGeometry relative="1" as="geometry">
            <mxPoint x="550" y="400" as="targetPoint" />
          </mxGeometry>
        </mxCell>
        <mxCell id="yxbQwqOl2DDBr9latGBP-2" value="" style="rounded=0;orthogonalLoop=1;jettySize=auto;html=1;" parent="1" source="xb4tpsyRX88__qetT4gH-40" target="xb4tpsyRX88__qetT4gH-16" edge="1">
          <mxGeometry relative="1" as="geometry" />
        </mxCell>
        <mxCell id="xb4tpsyRX88__qetT4gH-40" value="contact" style="rhombus;whiteSpace=wrap;html=1;rounded=0;fillColor=#d5e8d4;strokeColor=#82b366;" parent="1" vertex="1">
          <mxGeometry x="420" y="350" width="80" height="80" as="geometry" />
        </mxCell>
        <mxCell id="EC0jxy80tcTj28sGgCh9-4" value="" style="edgeStyle=none;rounded=0;orthogonalLoop=1;jettySize=auto;html=1;endArrow=none;endFill=0;" parent="1" source="xb4tpsyRX88__qetT4gH-43" target="xb4tpsyRX88__qetT4gH-40" edge="1">
          <mxGeometry relative="1" as="geometry" />
        </mxCell>
        <mxCell id="xb4tpsyRX88__qetT4gH-43" value="Issue date" style="ellipse;whiteSpace=wrap;html=1;rounded=0;fillColor=#fff2cc;strokeColor=#d6b656;" parent="1" vertex="1">
          <mxGeometry x="350" y="310" width="80" height="30" as="geometry" />
        </mxCell>
        <mxCell id="yxbQwqOl2DDBr9latGBP-1" value="" style="rounded=0;orthogonalLoop=1;jettySize=auto;html=1;endArrow=none;endFill=0;entryX=0;entryY=0.5;entryDx=0;entryDy=0;" parent="1" source="xb4tpsyRX88__qetT4gH-46" target="xb4tpsyRX88__qetT4gH-40" edge="1">
          <mxGeometry relative="1" as="geometry">
            <mxPoint x="433" y="544" as="targetPoint" />
          </mxGeometry>
        </mxCell>
        <mxCell id="xb4tpsyRX88__qetT4gH-46" value="Due date" style="ellipse;whiteSpace=wrap;html=1;rounded=0;fillColor=#fff2cc;strokeColor=#d6b656;" parent="1" vertex="1">
          <mxGeometry x="310" y="350" width="80" height="40" as="geometry" />
        </mxCell>
        <mxCell id="xb4tpsyRX88__qetT4gH-50" value="Email" style="ellipse;whiteSpace=wrap;html=1;rounded=0;fillColor=#fff2cc;strokeColor=#d6b656;" parent="1" vertex="1">
          <mxGeometry x="740" y="350" width="80" height="40" as="geometry" />
        </mxCell>
        <mxCell id="xb4tpsyRX88__qetT4gH-62" value="" style="edgeStyle=none;rounded=0;orthogonalLoop=1;jettySize=auto;html=1;endArrow=none;endFill=0;" parent="1" source="xb4tpsyRX88__qetT4gH-40" target="xb4tpsyRX88__qetT4gH-61" edge="1">
          <mxGeometry relative="1" as="geometry">
            <mxPoint x="430" y="428.33333333333326" as="sourcePoint" />
          </mxGeometry>
        </mxCell>
        <mxCell id="xb4tpsyRX88__qetT4gH-60" value="" style="edgeStyle=none;rounded=0;orthogonalLoop=1;jettySize=auto;html=1;endArrow=none;endFill=0;" parent="1" source="xb4tpsyRX88__qetT4gH-59" target="xb4tpsyRX88__qetT4gH-1" edge="1">
          <mxGeometry relative="1" as="geometry" />
        </mxCell>
        <mxCell id="xb4tpsyRX88__qetT4gH-59" value="Title" style="ellipse;whiteSpace=wrap;html=1;rounded=0;fillColor=#fff2cc;strokeColor=#d6b656;" parent="1" vertex="1">
          <mxGeometry x="130" y="20" width="80" height="50" as="geometry" />
        </mxCell>
        <mxCell id="xb4tpsyRX88__qetT4gH-61" value="Return Status" style="ellipse;whiteSpace=wrap;html=1;rounded=0;fillColor=#fff2cc;strokeColor=#d6b656;" parent="1" vertex="1">
          <mxGeometry x="470" y="440" width="80" height="40" as="geometry" />
        </mxCell>
        <mxCell id="xb4tpsyRX88__qetT4gH-64" value="" style="edgeStyle=none;rounded=0;orthogonalLoop=1;jettySize=auto;html=1;endArrow=none;endFill=0;" parent="1" source="xb4tpsyRX88__qetT4gH-63" target="xb4tpsyRX88__qetT4gH-1" edge="1">
          <mxGeometry relative="1" as="geometry" />
        </mxCell>
        <mxCell id="xb4tpsyRX88__qetT4gH-63" value="&lt;u&gt;Book ID&lt;/u&gt;" style="ellipse;whiteSpace=wrap;html=1;rounded=0;fillColor=#fff2cc;strokeColor=#d6b656;" parent="1" vertex="1">
          <mxGeometry x="50" y="50" width="80" height="50" as="geometry" />
        </mxCell>
        <mxCell id="xb4tpsyRX88__qetT4gH-65" value="Genre" style="ellipse;whiteSpace=wrap;html=1;rounded=0;fillColor=#fff2cc;strokeColor=#d6b656;" parent="1" vertex="1">
          <mxGeometry x="20" y="110" width="80" height="50" as="geometry" />
        </mxCell>
        <mxCell id="yxbQwqOl2DDBr9latGBP-8" value="" style="edgeStyle=none;rounded=0;orthogonalLoop=1;jettySize=auto;html=1;endArrow=none;endFill=0;" parent="1" source="yxbQwqOl2DDBr9latGBP-7" target="xb4tpsyRX88__qetT4gH-16" edge="1">
          <mxGeometry relative="1" as="geometry" />
        </mxCell>
        <mxCell id="yxbQwqOl2DDBr9latGBP-7" value="log in" style="rhombus;whiteSpace=wrap;html=1;rounded=0;fillColor=#d5e8d4;strokeColor=#82b366;" parent="1" vertex="1">
          <mxGeometry x="420" y="530" width="80" height="80" as="geometry" />
        </mxCell>
        <mxCell id="yxbQwqOl2DDBr9latGBP-12" value="" style="edgeStyle=none;rounded=0;orthogonalLoop=1;jettySize=auto;html=1;endArrow=none;endFill=0;" parent="1" source="yxbQwqOl2DDBr9latGBP-9" target="yxbQwqOl2DDBr9latGBP-11" edge="1">
          <mxGeometry relative="1" as="geometry" />
        </mxCell>
        <mxCell id="yxbQwqOl2DDBr9latGBP-15" value="" style="edgeStyle=none;rounded=0;orthogonalLoop=1;jettySize=auto;html=1;endArrow=none;endFill=0;" parent="1" source="yxbQwqOl2DDBr9latGBP-9" target="yxbQwqOl2DDBr9latGBP-14" edge="1">
          <mxGeometry relative="1" as="geometry" />
        </mxCell>
        <mxCell id="yxbQwqOl2DDBr9latGBP-9" value="system" style="whiteSpace=wrap;html=1;rounded=0;fillColor=#dae8fc;strokeColor=#6c8ebf;" parent="1" vertex="1">
          <mxGeometry x="570" y="540" width="120" height="60" as="geometry" />
        </mxCell>
        <mxCell id="yxbQwqOl2DDBr9latGBP-11" value="&lt;u&gt;User ID&lt;/u&gt;" style="ellipse;whiteSpace=wrap;html=1;rounded=0;fillColor=#fff2cc;strokeColor=#d6b656;" parent="1" vertex="1">
          <mxGeometry x="710" y="520" width="80" height="40" as="geometry" />
        </mxCell>
        <mxCell id="yxbQwqOl2DDBr9latGBP-14" value="Password" style="ellipse;whiteSpace=wrap;html=1;rounded=0;fillColor=#fff2cc;strokeColor=#d6b656;" parent="1" vertex="1">
          <mxGeometry x="710" y="570" width="80" height="40" as="geometry" />
        </mxCell>
        <mxCell id="8Ae30om9PxSAkU0IaVFc-2" value="" style="rounded=0;orthogonalLoop=1;jettySize=auto;html=1;endArrow=none;endFill=0;" parent="1" source="8Ae30om9PxSAkU0IaVFc-1" target="xb4tpsyRX88__qetT4gH-1" edge="1">
          <mxGeometry relative="1" as="geometry" />
        </mxCell>
        <mxCell id="8Ae30om9PxSAkU0IaVFc-1" value="Availability" style="ellipse;whiteSpace=wrap;html=1;fillColor=#fff2cc;strokeColor=#d6b656;rounded=0;" parent="1" vertex="1">
          <mxGeometry x="220" y="35" width="80" height="35" as="geometry" />
        </mxCell>
        <mxCell id="EC0jxy80tcTj28sGgCh9-3" value="" style="edgeStyle=none;rounded=0;orthogonalLoop=1;jettySize=auto;html=1;endArrow=none;endFill=0;exitX=1;exitY=0.5;exitDx=0;exitDy=0;exitPerimeter=0;" parent="1" source="Qi65Qj1onJfcgg75pa2s-4" target="yxbQwqOl2DDBr9latGBP-7" edge="1">
          <mxGeometry relative="1" as="geometry" />
        </mxCell>
        <mxCell id="Qi65Qj1onJfcgg75pa2s-4" value="" style="shape=requiredInterface;html=1;verticalLabelPosition=bottom;sketch=0;rotation=-180;direction=west;" parent="1" vertex="1">
          <mxGeometry x="550" y="560" width="20" height="20" as="geometry" />
        </mxCell>
        <mxCell id="FbRF_C25zrX3clCdIMPJ-3" value="" style="rounded=0;orthogonalLoop=1;jettySize=auto;html=1;endArrow=none;endFill=0;" parent="1" source="FbRF_C25zrX3clCdIMPJ-2" target="xb4tpsyRX88__qetT4gH-13" edge="1">
          <mxGeometry relative="1" as="geometry" />
        </mxCell>
        <mxCell id="FbRF_C25zrX3clCdIMPJ-2" value="Last Name" style="ellipse;whiteSpace=wrap;html=1;rounded=0;fillColor=#fff2cc;strokeColor=#d6b656;" parent="1" vertex="1">
          <mxGeometry x="720" y="110" width="80" height="50" as="geometry" />
        </mxCell>
        <mxCell id="FbRF_C25zrX3clCdIMPJ-8" value="" style="edgeStyle=none;rounded=0;orthogonalLoop=1;jettySize=auto;html=1;endArrow=none;endFill=0;" parent="1" source="FbRF_C25zrX3clCdIMPJ-5" target="xb4tpsyRX88__qetT4gH-13" edge="1">
          <mxGeometry relative="1" as="geometry" />
        </mxCell>
        <mxCell id="FbRF_C25zrX3clCdIMPJ-5" value="sign in" style="rhombus;whiteSpace=wrap;html=1;rounded=0;fillColor=#d5e8d4;strokeColor=#82b366;" parent="1" vertex="1">
          <mxGeometry x="580" y="340" width="80" height="80" as="geometry" />
        </mxCell>
        <mxCell id="FbRF_C25zrX3clCdIMPJ-6" value="" style="edgeStyle=none;rounded=0;orthogonalLoop=1;jettySize=auto;html=1;endArrow=none;endFill=0;exitX=1;exitY=0.5;exitDx=0;exitDy=0;exitPerimeter=0;" parent="1" source="FbRF_C25zrX3clCdIMPJ-7" target="FbRF_C25zrX3clCdIMPJ-5" edge="1">
          <mxGeometry relative="1" as="geometry" />
        </mxCell>
        <mxCell id="FbRF_C25zrX3clCdIMPJ-7" value="" style="shape=requiredInterface;html=1;verticalLabelPosition=bottom;sketch=0;rotation=-90;direction=west;" parent="1" vertex="1">
          <mxGeometry x="610" y="520" width="20" height="20" as="geometry" />
        </mxCell>
        <mxCell id="wBdS8xvpO8IM2sw-AXQi-2" value="" style="rounded=0;orthogonalLoop=1;jettySize=auto;html=1;endArrow=none;endFill=0;" parent="1" source="wBdS8xvpO8IM2sw-AXQi-1" target="xb4tpsyRX88__qetT4gH-1" edge="1">
          <mxGeometry relative="1" as="geometry" />
        </mxCell>
        <mxCell id="wBdS8xvpO8IM2sw-AXQi-1" value="Image" style="ellipse;whiteSpace=wrap;html=1;fillColor=#fff2cc;strokeColor=#d6b656;rounded=0;" parent="1" vertex="1">
          <mxGeometry x="310" y="40" width="80" height="40" as="geometry" />
        </mxCell>
        <mxCell id="3SSYS_Ih3W2ZmXRvELC8-2" value="" style="rounded=0;orthogonalLoop=1;jettySize=auto;html=1;endArrow=none;endFill=0;" parent="1" source="3SSYS_Ih3W2ZmXRvELC8-1" target="xb4tpsyRX88__qetT4gH-13" edge="1">
          <mxGeometry relative="1" as="geometry" />
        </mxCell>
        <mxCell id="3SSYS_Ih3W2ZmXRvELC8-1" value="Record" style="ellipse;whiteSpace=wrap;html=1;fillColor=#fff2cc;strokeColor=#d6b656;rounded=0;" parent="1" vertex="1">
          <mxGeometry x="580" y="60" width="80" height="40" as="geometry" />
        </mxCell>
        <mxCell id="3SSYS_Ih3W2ZmXRvELC8-3" value="Phone number" style="ellipse;whiteSpace=wrap;html=1;fillColor=#fff2cc;strokeColor=#d6b656;rounded=0;" parent="1" vertex="1">
          <mxGeometry x="60" y="570" width="100" height="40" as="geometry" />
        </mxCell>
      </root>
    </mxGraphModel>
  </diagram>
</mxfile>
